<svg width="134" height="133" viewBox="0 0 134 133" fill="none" xmlns="http://www.w3.org/2000/svg">
<path d="M1.58735 104L24.5905 66.1219L2.5436 29.625H23.7936L37.2342 52.7344L51.0999 29.625H71.8186L49.2405 66.4406L72.2967 104H50.8874L36.4905 79.4562L22.4124 104H1.58735ZM99.8005 105.594C96.5068 105.594 93.2662 105.222 90.0787 104.478C86.9266 103.77 84.0578 102.796 81.4724 101.556C78.887 100.317 76.8505 98.9 75.363 97.3062L80.6224 83.3875C82.6057 85.6542 85.2443 87.4604 88.538 88.8062C91.8672 90.1167 95.2495 90.7719 98.6849 90.7719C101.27 90.7719 103.537 90.3646 105.485 89.55C107.433 88.7 108.938 87.5135 110.001 85.9906C111.098 84.4677 111.647 82.6792 111.647 80.625C111.647 77.4021 110.461 74.9052 108.088 73.1344C105.751 71.3635 102.705 70.4781 98.9505 70.4781C97.6047 70.4781 96.188 70.5844 94.7005 70.7969C93.2485 70.974 91.761 71.2573 90.238 71.6469L85.563 60.65L105.007 43.8625H76.213V29.625H124.822V42.7469L106.866 60.1187C110.443 60.3667 113.843 61.3406 117.066 63.0406C120.289 64.7406 122.928 67.1667 124.982 70.3187C127.036 73.4354 128.063 77.2958 128.063 81.9C128.063 86.5042 126.859 90.5948 124.451 94.1719C122.042 97.7135 118.713 100.511 114.463 102.566C110.213 104.584 105.326 105.594 99.8005 105.594Z" fill="url(#paint0_linear_651_48)"/>
<defs>
<linearGradient id="paint0_linear_651_48" x1="67" y1="0" x2="67" y2="133" gradientUnits="userSpaceOnUse">
<stop offset="0.0144231" stop-color="#E7AA51"/>
<stop offset="0.221154" stop-color="#FFDA71"/>
<stop offset="0.461538" stop-color="#8D5A1B"/>
<stop offset="0.663462" stop-color="#E7AA51"/>
<stop offset="0.932692" stop-color="#AC7031"/>
</linearGradient>
</defs>
</svg>
